<mxfile host="app.diagrams.net" modified="2021-04-14T02:34:58.785Z" agent="5.0 (Windows NT 10.0; Win64; x64) AppleWebKit/537.36 (KHTML, like Gecko) Chrome/84.0.4147.105 Safari/537.36" etag="ApfB2S13xhNi47u3mIR_" version="14.6.0" type="github">
  <diagram id="7yCHijj91e1RnLWK9Qyf" name="Page-1">
    <mxGraphModel dx="786" dy="469" grid="1" gridSize="10" guides="1" tooltips="1" connect="1" arrows="1" fold="1" page="1" pageScale="1" pageWidth="827" pageHeight="1169" math="0" shadow="0">
      <root>
        <mxCell id="0" />
        <mxCell id="1" parent="0" />
        <mxCell id="1nIX9FfnLIZ7cNUW6tsu-1" value="chrome浏览器（V56版本以上，支持PPAPI）" style="rounded=1;whiteSpace=wrap;html=1;fillColor=#d5e8d4;strokeColor=#82b366;align=right;" vertex="1" parent="1">
          <mxGeometry x="60" y="80" width="660" height="40" as="geometry" />
        </mxCell>
        <mxCell id="1nIX9FfnLIZ7cNUW6tsu-2" value="前端UI" style="text;html=1;strokeColor=none;fillColor=none;align=center;verticalAlign=middle;whiteSpace=wrap;rounded=0;" vertex="1" parent="1">
          <mxGeometry x="10" y="90" width="40" height="20" as="geometry" />
        </mxCell>
        <mxCell id="1nIX9FfnLIZ7cNUW6tsu-4" value="plugin(SanyPlayerForChrome.dll 模块)" style="rounded=1;whiteSpace=wrap;html=1;" vertex="1" parent="1">
          <mxGeometry x="60" y="200" width="250" height="60" as="geometry" />
        </mxCell>
        <mxCell id="1nIX9FfnLIZ7cNUW6tsu-5" value="通讯层" style="text;html=1;strokeColor=none;fillColor=none;align=center;verticalAlign=middle;whiteSpace=wrap;rounded=0;" vertex="1" parent="1">
          <mxGeometry x="10" y="160" width="40" height="20" as="geometry" />
        </mxCell>
        <mxCell id="1nIX9FfnLIZ7cNUW6tsu-6" value="在网页上创建window窗口" style="rounded=1;whiteSpace=wrap;html=1;" vertex="1" parent="1">
          <mxGeometry x="440" y="210" width="110" height="40" as="geometry" />
        </mxCell>
        <mxCell id="1nIX9FfnLIZ7cNUW6tsu-7" value="VLC SDK" style="rounded=1;whiteSpace=wrap;html=1;" vertex="1" parent="1">
          <mxGeometry x="50" y="330" width="565" height="50" as="geometry" />
        </mxCell>
        <mxCell id="1nIX9FfnLIZ7cNUW6tsu-8" value="" style="endArrow=classic;startArrow=classic;html=1;" edge="1" parent="1">
          <mxGeometry width="50" height="50" relative="1" as="geometry">
            <mxPoint x="90" y="330" as="sourcePoint" />
            <mxPoint x="90" y="280" as="targetPoint" />
            <Array as="points">
              <mxPoint x="90" y="290" />
              <mxPoint x="90" y="250" />
            </Array>
          </mxGeometry>
        </mxCell>
        <mxCell id="1nIX9FfnLIZ7cNUW6tsu-11" value="html" style="rounded=1;whiteSpace=wrap;html=1;" vertex="1" parent="1">
          <mxGeometry x="110" y="90" width="70" height="20" as="geometry" />
        </mxCell>
        <mxCell id="1nIX9FfnLIZ7cNUW6tsu-12" value="画面显示" style="endArrow=classic;html=1;exitX=0.791;exitY=-0.04;exitDx=0;exitDy=0;exitPerimeter=0;" edge="1" parent="1" source="1nIX9FfnLIZ7cNUW6tsu-7">
          <mxGeometry width="50" height="50" relative="1" as="geometry">
            <mxPoint x="495" y="320" as="sourcePoint" />
            <mxPoint x="494.5" y="250" as="targetPoint" />
          </mxGeometry>
        </mxCell>
        <mxCell id="1nIX9FfnLIZ7cNUW6tsu-14" value="" style="endArrow=classic;html=1;exitX=1;exitY=0.5;exitDx=0;exitDy=0;entryX=0;entryY=0.5;entryDx=0;entryDy=0;" edge="1" parent="1" source="1nIX9FfnLIZ7cNUW6tsu-4" target="1nIX9FfnLIZ7cNUW6tsu-6">
          <mxGeometry width="50" height="50" relative="1" as="geometry">
            <mxPoint x="350" y="270" as="sourcePoint" />
            <mxPoint x="400" y="220" as="targetPoint" />
          </mxGeometry>
        </mxCell>
        <mxCell id="1nIX9FfnLIZ7cNUW6tsu-18" value="通过embed标签&lt;br&gt;加载" style="endArrow=classic;html=1;exitX=0.044;exitY=1.05;exitDx=0;exitDy=0;exitPerimeter=0;" edge="1" parent="1" source="1nIX9FfnLIZ7cNUW6tsu-1">
          <mxGeometry width="50" height="50" relative="1" as="geometry">
            <mxPoint x="90" y="133" as="sourcePoint" />
            <mxPoint x="90" y="200" as="targetPoint" />
            <Array as="points">
              <mxPoint x="90" y="160" />
            </Array>
          </mxGeometry>
        </mxCell>
        <mxCell id="1nIX9FfnLIZ7cNUW6tsu-21" value="底层&lt;br&gt;" style="text;html=1;strokeColor=none;fillColor=none;align=center;verticalAlign=middle;whiteSpace=wrap;rounded=0;" vertex="1" parent="1">
          <mxGeometry x="10" y="230" width="30" height="10" as="geometry" />
        </mxCell>
      </root>
    </mxGraphModel>
  </diagram>
</mxfile>
